<svg version="1.2" baseProfile="tiny-ps" xmlns="http://www.w3.org/2000/svg" viewBox="0 0 1540 328" width="1540" height="328">
	<title>stell-logo-blue-svg</title>
	<style>
		tspan { white-space:pre }
		.shp0 { fill: #243882 } 
	</style>
	<path id="Layer" fill-rule="evenodd" class="shp0" d="M1054.22 118.9C1053.89 118.93 1053.56 118.89 1053.24 118.79C1052.93 118.68 1052.64 118.52 1052.39 118.31C1052.14 118.09 1051.93 117.83 1051.78 117.54C1051.62 117.24 1051.53 116.92 1051.5 116.59L1051.51 116.59C1051.46 115.92 1051.68 115.26 1052.12 114.75C1052.56 114.24 1053.19 113.93 1053.86 113.88C1054.53 113.84 1055.19 114.06 1055.7 114.5C1056.21 114.94 1056.52 115.56 1056.58 116.23C1056.6 116.57 1056.56 116.9 1056.45 117.22C1056.35 117.53 1056.18 117.83 1055.96 118.08C1055.74 118.33 1055.48 118.54 1055.18 118.69C1054.88 118.84 1054.55 118.93 1054.22 118.95M892.88 36.72C892.88 35.75 893.07 34.8 893.44 33.9C893.82 33 894.36 32.19 895.05 31.51C895.73 30.82 896.54 30.28 897.44 29.91C898.34 29.53 899.3 29.34 900.27 29.34C903.25 29.34 905.94 31.14 907.09 33.9C908.23 36.66 907.6 39.83 905.49 41.94C903.37 44.05 900.2 44.68 897.44 43.54C894.68 42.4 892.88 39.71 892.88 36.72ZM939.81 52.53C939.81 51.56 940 50.6 940.37 49.7C940.74 48.81 941.28 47.99 941.97 47.31C942.66 46.62 943.47 46.08 944.37 45.71C945.26 45.34 946.22 45.15 947.19 45.15C950.2 45.15 952.9 46.96 954.05 49.73C955.2 52.5 954.57 55.7 952.44 57.82C950.32 59.95 947.12 60.58 944.35 59.43C941.57 58.28 939.76 55.57 939.76 52.57L939.81 52.53ZM763.21 245.77C763.21 244.8 763.41 243.84 763.79 242.95C764.16 242.06 764.71 241.25 765.4 240.57C766.09 239.89 766.91 239.35 767.81 238.98C768.7 238.62 769.66 238.43 770.63 238.44C773.64 238.46 776.34 240.28 777.47 243.06C778.6 245.84 777.95 249.03 775.81 251.14C773.67 253.26 770.47 253.87 767.7 252.7C764.94 251.54 763.14 248.82 763.16 245.82L763.21 245.77ZM799.71 276.47C799.72 275.5 799.91 274.54 800.29 273.65C800.66 272.75 801.2 271.94 801.89 271.25C802.57 270.56 803.38 270.01 804.27 269.63C805.17 269.26 806.13 269.06 807.1 269.04C810.1 269.04 812.81 270.85 813.96 273.63C815.11 276.4 814.47 279.6 812.35 281.72C810.22 283.84 807.03 284.48 804.25 283.33C801.48 282.18 799.67 279.47 799.67 276.47L799.71 276.47ZM846.74 287.93C847.11 287.03 847.66 286.2 848.35 285.51C849.04 284.82 849.86 284.28 850.76 283.91C851.67 283.53 852.64 283.35 853.61 283.35C856.62 283.35 859.33 285.16 860.48 287.94C861.63 290.71 860.99 293.9 858.87 296.03C856.74 298.15 853.55 298.79 850.77 297.64C847.99 296.49 846.18 293.78 846.18 290.78C846.18 289.8 846.37 288.83 846.74 287.93ZM893.92 290.19C893.9 289.2 894.07 288.22 894.44 287.3C894.8 286.38 895.34 285.54 896.04 284.84C896.73 284.13 897.56 283.57 898.47 283.19C899.38 282.81 900.36 282.62 901.35 282.63C904.32 282.65 906.98 284.44 908.12 287.17C909.26 289.91 908.65 293.06 906.57 295.18C904.5 297.29 901.35 297.96 898.6 296.87C895.84 295.78 894 293.15 893.92 290.19ZM939.85 275.56C939.85 274.59 940.03 273.62 940.41 272.72C940.78 271.81 941.32 270.99 942.02 270.3C942.71 269.61 943.53 269.06 944.43 268.69C945.34 268.32 946.3 268.13 947.28 268.14C950.27 268.18 952.94 270 954.07 272.76C955.2 275.53 954.56 278.7 952.44 280.81C950.33 282.93 947.16 283.57 944.39 282.44C941.62 281.32 939.8 278.64 939.76 275.66L939.85 275.56ZM976.91 243.38C977.28 242.47 977.83 241.65 978.52 240.96C979.21 240.27 980.03 239.72 980.94 239.35C981.84 238.98 982.81 238.79 983.79 238.8C986.79 238.8 989.5 240.61 990.65 243.38C991.8 246.16 991.17 249.35 989.04 251.48C986.92 253.6 983.72 254.23 980.95 253.08C978.17 251.94 976.36 249.23 976.36 246.22C976.35 245.25 976.54 244.28 976.91 243.38ZM975.86 81.87C975.86 80.89 976.04 79.93 976.41 79.03C976.78 78.13 977.32 77.31 978.01 76.62C978.69 75.93 979.51 75.38 980.41 75.01C981.31 74.63 982.27 74.44 983.24 74.44C986.23 74.44 988.92 76.23 990.06 78.99C991.21 81.74 990.58 84.91 988.48 87.02C986.38 89.14 983.21 89.78 980.45 88.65C977.69 87.52 975.88 84.85 975.86 81.87ZM924 62.31C924.01 63.55 923.77 64.78 923.3 65.92C922.83 67.07 922.13 68.12 921.26 68.99C920.38 69.87 919.34 70.57 918.19 71.05C917.05 71.52 915.82 71.77 914.58 71.77C910.77 71.77 907.34 69.48 905.88 65.97C904.42 62.45 905.22 58.4 907.9 55.71C910.59 53.01 914.63 52.19 918.15 53.64C921.67 55.08 923.98 58.5 924 62.31ZM955.71 81.82C955.71 83.06 955.47 84.29 955 85.44C954.53 86.59 953.84 87.63 952.96 88.51C952.09 89.39 951.05 90.09 949.9 90.56C948.75 91.04 947.53 91.28 946.28 91.28C942.48 91.28 939.05 88.99 937.59 85.48C936.12 81.97 936.92 77.92 939.61 75.22C942.29 72.53 946.34 71.71 949.86 73.15C953.38 74.6 955.69 78.02 955.71 81.82ZM980.44 109.67C980.44 110.91 980.2 112.14 979.73 113.3C979.25 114.45 978.56 115.49 977.68 116.37C976.8 117.25 975.75 117.95 974.6 118.42C973.45 118.9 972.21 119.14 970.97 119.13C967.14 119.13 963.69 116.82 962.22 113.29C960.76 109.75 961.57 105.68 964.28 102.98C966.98 100.27 971.06 99.46 974.59 100.92C978.13 102.39 980.44 105.84 980.44 109.67ZM912.68 3.81C912.65 4.13 912.56 4.45 912.4 4.74C912.25 5.04 912.04 5.29 911.79 5.51C911.54 5.72 911.24 5.87 910.93 5.97C910.62 6.07 910.29 6.1 909.96 6.07C909.63 6.04 909.31 5.94 909.01 5.78C908.72 5.63 908.46 5.41 908.24 5.16C908.03 4.9 907.87 4.61 907.76 4.29C907.66 3.98 907.62 3.64 907.65 3.31C907.68 2.98 907.78 2.66 907.94 2.36C908.09 2.07 908.31 1.81 908.56 1.59C908.82 1.38 909.11 1.22 909.43 1.12C909.75 1.01 910.08 0.97 910.41 1C910.74 1.04 911.05 1.14 911.34 1.3C911.63 1.46 911.88 1.67 912.08 1.93C912.29 2.18 912.44 2.48 912.54 2.79C912.63 3.11 912.66 3.44 912.63 3.76L912.68 3.81ZM975.86 26.72C975.83 27.05 975.74 27.37 975.59 27.66C975.44 27.96 975.23 28.22 974.98 28.43C974.73 28.64 974.43 28.81 974.12 28.91C973.81 29.01 973.47 29.05 973.14 29.03C972.86 28.97 972.59 28.87 972.34 28.72C972.09 28.58 971.86 28.39 971.68 28.17C971.49 27.95 971.34 27.7 971.23 27.43C971.13 27.16 971.07 26.87 971.06 26.58C971.06 26.25 971.12 25.92 971.25 25.61C971.37 25.31 971.55 25.03 971.78 24.79C972.01 24.55 972.29 24.36 972.59 24.22C972.89 24.09 973.22 24.01 973.55 24C973.88 24.03 974.2 24.12 974.49 24.27C974.78 24.43 975.04 24.64 975.25 24.89C975.46 25.14 975.62 25.43 975.72 25.75C975.81 26.06 975.85 26.39 975.82 26.72L975.86 26.72ZM1025.41 62.26C1025.42 62.3 1025.42 62.34 1025.43 62.39C1025.43 62.43 1025.43 62.47 1025.43 62.51C1025.43 62.55 1025.43 62.59 1025.43 62.63C1025.42 62.68 1025.42 62.72 1025.41 62.76C1025.34 63.08 1025.21 63.39 1025.02 63.67C1024.84 63.95 1024.6 64.19 1024.33 64.37C1024.05 64.56 1023.74 64.7 1023.42 64.77C1023.09 64.84 1022.75 64.85 1022.42 64.8C1022.1 64.73 1021.79 64.59 1021.52 64.41C1021.24 64.22 1021.01 63.98 1020.82 63.71C1020.64 63.43 1020.51 63.12 1020.44 62.79C1020.37 62.47 1020.37 62.13 1020.43 61.81C1020.46 61.48 1020.55 61.16 1020.7 60.87C1020.86 60.58 1021.07 60.32 1021.32 60.11C1021.57 59.9 1021.86 59.74 1022.18 59.64C1022.49 59.55 1022.82 59.51 1023.15 59.54C1023.48 59.57 1023.81 59.67 1024.1 59.82C1024.4 59.98 1024.66 60.19 1024.88 60.44C1025.09 60.7 1025.26 61 1025.36 61.32C1025.45 61.64 1025.49 61.97 1025.46 62.31L1025.41 62.26ZM939.58 29.39C939.55 30.03 939.38 30.66 939.1 31.24C938.82 31.82 938.42 32.33 937.94 32.76C937.45 33.18 936.89 33.5 936.27 33.7C935.66 33.9 935.01 33.97 934.37 33.92C932.45 33.75 930.82 32.45 930.22 30.62C929.62 28.79 930.18 26.78 931.64 25.51C933.09 24.25 935.16 23.98 936.89 24.82C938.62 25.67 939.68 27.47 939.58 29.39ZM987.55 53.25C987.52 53.89 987.36 54.52 987.08 55.1C986.81 55.68 986.41 56.19 985.93 56.62C985.45 57.04 984.89 57.36 984.28 57.56C983.67 57.76 983.02 57.83 982.38 57.78L981.93 57.78C980.63 57.65 979.44 57.01 978.63 55.99C977.82 54.96 977.46 53.66 977.63 52.37C977.8 51.07 978.5 49.91 979.55 49.14C980.6 48.36 981.91 48.05 983.2 48.27C983.84 48.3 984.47 48.47 985.05 48.75C985.63 49.03 986.15 49.43 986.57 49.91C986.99 50.4 987.31 50.97 987.51 51.58C987.71 52.19 987.78 52.84 987.73 53.48L987.55 53.25ZM1020.52 87.53C1021.16 87.56 1021.79 87.72 1022.37 88.01C1022.95 88.29 1023.47 88.68 1023.89 89.17C1024.31 89.66 1024.63 90.22 1024.83 90.83C1025.03 91.45 1025.11 92.09 1025.05 92.73C1024.88 94.65 1023.59 96.29 1021.75 96.88C1019.92 97.48 1017.91 96.92 1016.64 95.47C1015.38 94.01 1015.11 91.95 1015.95 90.21C1016.8 88.48 1018.6 87.42 1020.52 87.53ZM876.89 16.26C877.53 16.25 878.15 16.37 878.74 16.61C879.32 16.85 879.86 17.2 880.3 17.65C880.75 18.1 881.1 18.63 881.34 19.21C881.58 19.8 881.7 20.43 881.7 21.06C881.68 23.02 880.48 24.77 878.66 25.51C876.84 26.24 874.76 25.8 873.39 24.41C872.02 23.01 871.62 20.92 872.39 19.12C873.16 17.31 874.93 16.15 876.89 16.17L876.89 16.26ZM853.52 29.52C854.49 29.53 855.45 29.72 856.35 30.09C857.24 30.46 858.06 31 858.74 31.69C859.43 32.37 859.97 33.19 860.34 34.08C860.71 34.98 860.91 35.94 860.91 36.91C860.89 39.91 859.06 42.61 856.28 43.74C853.5 44.87 850.3 44.21 848.19 42.08C846.08 39.94 845.47 36.74 846.63 33.98C847.8 31.21 850.52 29.42 853.52 29.43L853.52 29.52ZM806.64 45.19C807.61 45.2 808.57 45.4 809.46 45.78C810.36 46.16 811.17 46.71 811.85 47.39C812.54 48.08 813.08 48.9 813.45 49.79C813.83 50.69 814.02 51.65 814.03 52.62C814.01 55.62 812.18 58.32 809.4 59.45C806.62 60.58 803.42 59.93 801.31 57.79C799.2 55.65 798.59 52.46 799.75 49.69C800.92 46.92 803.64 45.13 806.64 45.15L806.64 45.19ZM687.61 192.07L765.7 192.07L760.67 205.66L667.09 205.66L667.09 114.19L687.61 114.19L687.61 192.07ZM747.35 113.29C748.31 113.32 749.26 113.55 750.14 113.94C751.01 114.34 751.8 114.91 752.46 115.61C753.12 116.31 753.64 117.13 753.98 118.03C754.32 118.93 754.49 119.89 754.46 120.85C754.45 123.85 752.62 126.55 749.84 127.68C747.05 128.81 743.86 128.16 741.75 126.02C739.64 123.89 739.02 120.69 740.19 117.92C741.36 115.15 744.08 113.36 747.08 113.38L747.35 113.29ZM770.95 74.44C771.92 74.45 772.88 74.65 773.77 75.03C774.67 75.41 775.48 75.96 776.16 76.64C776.85 77.33 777.39 78.15 777.76 79.04C778.13 79.94 778.33 80.9 778.33 81.87C778.32 84.87 776.49 87.57 773.71 88.7C770.92 89.83 767.73 89.18 765.62 87.04C763.51 84.9 762.89 81.71 764.06 78.94C765.23 76.17 767.95 74.38 770.95 74.4L770.95 74.44ZM876.89 281.13C875.65 281.13 874.43 280.88 873.29 280.4C872.14 279.92 871.1 279.22 870.23 278.35C869.36 277.47 868.66 276.43 868.19 275.28C867.72 274.14 867.47 272.91 867.47 271.67C867.49 267.84 869.81 264.4 873.36 262.96C876.9 261.51 880.97 262.34 883.67 265.06C886.36 267.78 887.15 271.85 885.67 275.38C884.19 278.91 880.72 281.2 876.89 281.18L876.89 281.13ZM876.89 66.11C875.65 66.1 874.43 65.85 873.29 65.38C872.14 64.9 871.1 64.2 870.23 63.32C869.36 62.44 868.66 61.4 868.19 60.26C867.72 59.11 867.47 57.89 867.47 56.65C867.49 52.82 869.81 49.38 873.36 47.93C876.9 46.48 880.97 47.31 883.67 50.03C886.36 52.75 887.15 56.83 885.67 60.35C884.19 63.88 880.72 66.17 876.89 66.15L876.89 66.11ZM839.25 71.63C838.02 71.63 836.79 71.38 835.65 70.9C834.51 70.42 833.48 69.72 832.61 68.84C831.74 67.96 831.05 66.92 830.58 65.78C830.11 64.63 829.87 63.41 829.88 62.17C829.9 58.34 832.22 54.9 835.76 53.46C839.31 52.01 843.38 52.84 846.07 55.56C848.77 58.28 849.56 62.35 848.07 65.88C846.59 69.41 843.13 71.7 839.3 71.68L839.25 71.63ZM807.5 91.1C806.27 91.1 805.04 90.85 803.9 90.37C802.76 89.89 801.73 89.19 800.85 88.31C799.98 87.43 799.3 86.39 798.83 85.25C798.36 84.1 798.12 82.88 798.13 81.64C798.15 77.81 800.47 74.37 804.01 72.93C807.56 71.48 811.63 72.31 814.32 75.03C817.01 77.75 817.8 81.82 816.32 85.35C814.84 88.88 811.38 91.17 807.55 91.15L807.5 91.1ZM782.82 118.86C781.58 118.85 780.36 118.6 779.22 118.12C778.08 117.65 777.04 116.95 776.17 116.07C775.3 115.19 774.61 114.15 774.14 113C773.67 111.86 773.44 110.63 773.44 109.4C773.54 105.55 775.95 102.15 779.54 100.78C783.13 99.42 787.2 100.36 789.82 103.17C792.45 105.98 793.11 110.09 791.51 113.58C789.9 117.07 786.34 119.25 782.5 119.08L782.82 118.86ZM772.54 153.95C771.3 153.95 770.07 153.7 768.93 153.23C767.79 152.76 766.75 152.06 765.87 151.19C765 150.32 764.31 149.28 763.83 148.13C763.36 146.99 763.12 145.77 763.12 144.53C763.13 140.7 765.46 137.26 769 135.82C772.55 134.37 776.61 135.2 779.31 137.92C782 140.64 782.79 144.71 781.31 148.24C779.83 151.77 776.37 154.06 772.54 154.04L772.54 153.95ZM843.83 6.07C843.5 6.1 843.17 6.06 842.86 5.95C842.55 5.85 842.26 5.69 842.01 5.47C841.76 5.26 841.56 5 841.41 4.7C841.27 4.41 841.18 4.09 841.16 3.76C841.12 3.43 841.15 3.1 841.24 2.78C841.34 2.46 841.49 2.16 841.71 1.9C841.92 1.65 842.18 1.43 842.47 1.28C842.77 1.12 843.09 1.03 843.42 1C843.75 0.97 844.09 1.01 844.41 1.12C844.72 1.22 845.02 1.38 845.27 1.59C845.53 1.81 845.74 2.07 845.9 2.36C846.05 2.66 846.15 2.98 846.18 3.31C846.21 3.64 846.17 3.98 846.07 4.29C845.97 4.61 845.8 4.9 845.59 5.16C845.38 5.41 845.12 5.63 844.82 5.78C844.53 5.94 844.21 6.04 843.87 6.07L843.83 6.07ZM779.76 28.86C779.44 28.76 779.15 28.6 778.9 28.39C778.65 28.17 778.44 27.91 778.29 27.62C778.14 27.32 778.05 27 778.02 26.67C777.99 26.35 778.03 26.02 778.14 25.7C778.24 25.39 778.4 25.11 778.62 24.86C778.83 24.61 779.09 24.41 779.39 24.26C779.68 24.11 780 24.02 780.33 24C780.66 23.98 780.99 24.02 781.3 24.12C781.62 24.22 781.91 24.38 782.16 24.6C782.41 24.81 782.62 25.07 782.77 25.37C782.92 25.66 783.02 25.98 783.04 26.31C783.07 26.64 783.03 26.97 782.93 27.28C782.82 27.59 782.66 27.88 782.45 28.13C782.23 28.37 781.97 28.58 781.68 28.72C781.38 28.87 781.06 28.96 780.73 28.98C780.4 29.01 780.07 28.97 779.76 28.86ZM1054.08 226.8C1053.75 226.83 1053.42 226.79 1053.11 226.68C1052.79 226.58 1052.5 226.42 1052.25 226.2C1052 225.99 1051.79 225.73 1051.64 225.43C1051.49 225.14 1051.4 224.82 1051.37 224.49C1051.34 224.16 1051.38 223.84 1051.49 223.52C1051.59 223.21 1051.75 222.92 1051.97 222.68C1052.18 222.43 1052.44 222.22 1052.74 222.08C1053.03 221.93 1053.35 221.84 1053.68 221.82L1054.22 221.82C1054.89 221.82 1055.54 222.09 1056.01 222.56C1056.49 223.04 1056.76 223.68 1056.76 224.36C1056.76 225.03 1056.49 225.67 1056.01 226.15C1055.54 226.62 1054.89 226.89 1054.22 226.89L1054.08 226.8ZM1022.84 268.81C1022.52 268.71 1022.22 268.54 1021.97 268.33C1021.71 268.11 1021.5 267.85 1021.34 267.55C1021.19 267.26 1021.09 266.93 1021.07 266.6C1021.04 266.27 1021.08 265.93 1021.18 265.62C1021.28 265.3 1021.45 265 1021.66 264.75C1021.87 264.49 1022.13 264.28 1022.43 264.13C1022.72 263.97 1023.04 263.87 1023.38 263.84C1023.71 263.81 1024.04 263.85 1024.36 263.95C1024.68 264.06 1024.97 264.22 1025.23 264.43C1025.48 264.64 1025.69 264.91 1025.85 265.2C1026.01 265.49 1026.1 265.82 1026.14 266.15C1026.16 266.48 1026.11 266.81 1026.01 267.12C1025.91 267.44 1025.74 267.73 1025.53 267.99C1025.32 268.24 1025.06 268.45 1024.77 268.61C1024.48 268.77 1024.16 268.87 1023.83 268.91C1023.49 268.94 1023.16 268.9 1022.84 268.81ZM973.42 304.45C973.09 304.48 972.76 304.45 972.44 304.35C972.13 304.25 971.84 304.1 971.59 303.89C971.33 303.68 971.12 303.42 970.97 303.13C970.82 302.83 970.73 302.52 970.7 302.19C970.69 302.15 970.69 302.11 970.69 302.06C970.68 302.02 970.68 301.98 970.68 301.94C970.68 301.9 970.68 301.86 970.69 301.81C970.69 301.77 970.69 301.73 970.7 301.69C970.7 301.02 970.97 300.37 971.44 299.9C971.92 299.42 972.56 299.15 973.23 299.15C973.91 299.15 974.55 299.42 975.03 299.9C975.5 300.37 975.77 301.02 975.77 301.69C975.8 302.02 975.76 302.35 975.65 302.66C975.55 302.97 975.39 303.26 975.17 303.51C974.96 303.75 974.7 303.96 974.4 304.1C974.11 304.25 973.79 304.34 973.46 304.36L973.42 304.45ZM910.41 326.99C909.74 327.05 909.08 326.83 908.56 326.4C908.05 325.96 907.73 325.34 907.68 324.67C907.63 324 907.84 323.33 908.28 322.82C908.71 322.31 909.33 321.99 910 321.93L910 321.94C910.68 321.88 911.34 322.1 911.85 322.53C912.36 322.97 912.68 323.59 912.74 324.26C912.79 324.93 912.58 325.6 912.14 326.11C911.7 326.62 911.08 326.94 910.41 327L910.41 326.99ZM843.87 327L843.87 326.99C843.2 327.05 842.54 326.83 842.03 326.4C841.51 325.96 841.2 325.34 841.14 324.67C841.09 324 841.3 323.33 841.74 322.82C842.18 322.31 842.8 321.99 843.47 321.93L843.47 321.94C844.14 321.88 844.8 322.09 845.32 322.52C845.84 322.95 846.16 323.57 846.22 324.24C846.28 324.91 846.07 325.57 845.64 326.09C845.21 326.61 844.59 326.93 843.92 327L843.87 327ZM779.76 303.93C779.44 303.82 779.15 303.66 778.9 303.45C778.65 303.23 778.44 302.97 778.29 302.68C778.14 302.38 778.05 302.06 778.02 301.74C777.99 301.41 778.03 301.08 778.14 300.77C778.24 300.46 778.4 300.17 778.62 299.92C778.83 299.67 779.09 299.47 779.39 299.32C779.68 299.17 780 299.09 780.33 299.06C780.66 299.04 780.99 299.08 781.3 299.18C781.62 299.28 781.91 299.45 782.16 299.66C782.41 299.87 782.62 300.14 782.77 300.43C782.92 300.72 783.02 301.04 783.04 301.37C783.07 301.7 783.03 302.03 782.93 302.34C782.82 302.65 782.66 302.94 782.45 303.19C782.23 303.44 781.97 303.64 781.68 303.79C781.38 303.93 781.06 304.02 780.73 304.04C780.4 304.07 780.07 304.03 779.76 303.93ZM730.91 268.46C730.58 268.48 730.25 268.44 729.94 268.34C729.62 268.24 729.33 268.07 729.08 267.86C728.83 267.65 728.62 267.38 728.47 267.09C728.31 266.8 728.22 266.48 728.19 266.15L728.2 266.15C728.15 265.48 728.37 264.81 728.81 264.3C729.25 263.8 729.88 263.48 730.55 263.44C731.22 263.39 731.88 263.61 732.39 264.05C732.9 264.49 733.21 265.11 733.27 265.78C733.29 266.12 733.25 266.45 733.14 266.77C733.04 267.09 732.87 267.38 732.65 267.63C732.43 267.88 732.17 268.09 731.87 268.24C731.57 268.39 731.24 268.48 730.91 268.5L730.91 268.46ZM699.61 226.8C698.99 226.78 698.39 226.54 697.93 226.11C697.48 225.68 697.2 225.09 697.15 224.47C697.1 223.85 697.28 223.23 697.66 222.73C698.04 222.23 698.59 221.89 699.21 221.77L699.75 221.77C700.42 221.77 701.07 222.04 701.54 222.52C702.02 222.99 702.29 223.64 702.29 224.31C702.29 224.98 702.02 225.63 701.54 226.1C701.07 226.58 700.42 226.85 699.75 226.85L699.61 226.8ZM731.14 64.34C730.81 64.37 730.48 64.33 730.16 64.23C729.85 64.12 729.56 63.96 729.3 63.75C729.05 63.53 728.84 63.27 728.69 62.98C728.54 62.68 728.45 62.36 728.42 62.03L728.43 62.03C728.38 61.36 728.6 60.7 729.04 60.19C729.48 59.68 730.1 59.37 730.78 59.32C731.45 59.28 732.11 59.5 732.62 59.94C733.13 60.38 733.44 61 733.49 61.67C733.52 62.01 733.48 62.34 733.37 62.66C733.27 62.97 733.1 63.27 732.88 63.52C732.66 63.77 732.39 63.98 732.1 64.13C731.8 64.28 731.47 64.37 731.14 64.39L731.14 64.34ZM819.23 33.51C818.02 33.5 816.85 33.04 815.97 32.21C815.08 31.37 814.55 30.24 814.47 29.03C814.39 27.82 814.77 26.62 815.54 25.68C816.3 24.74 817.4 24.12 818.6 23.96C819.83 23.91 821.04 24.34 821.96 25.16C822.89 25.97 823.46 27.11 823.57 28.34C823.67 29.57 823.3 30.8 822.53 31.76C821.75 32.72 820.64 33.35 819.42 33.51L819.23 33.51ZM770.59 57.6C768.13 57.47 766.23 55.42 766.29 52.96C766.35 50.51 768.36 48.55 770.82 48.55C773.27 48.55 775.28 50.51 775.34 52.96C775.4 55.42 773.5 57.47 771.04 57.6L770.59 57.6ZM728.51 92.73C728.48 92.11 728.57 91.48 728.78 90.89C728.99 90.3 729.32 89.75 729.74 89.29C730.16 88.82 730.67 88.44 731.23 88.17C731.8 87.9 732.41 87.74 733.04 87.71C734.35 87.53 735.68 87.9 736.71 88.73C737.74 89.56 738.38 90.78 738.48 92.1C738.58 93.42 738.13 94.72 737.24 95.7C736.35 96.68 735.09 97.24 733.76 97.26L733.09 97.26C732.49 97.26 731.9 97.14 731.35 96.92C730.8 96.69 730.3 96.35 729.88 95.93C729.46 95.51 729.13 95.01 728.9 94.47C728.67 93.92 728.56 93.33 728.56 92.73L728.51 92.73ZM1098.52 114.42L1118.99 114.42L1118.99 204.75L1098.52 204.75L1012.46 136.83L1012.46 204.75L991.94 204.75L991.94 114.56L1012.55 114.56L1098.61 182.11L1098.52 114.42ZM1020.97 230.56C1022.19 230.56 1023.36 231.03 1024.24 231.86C1025.13 232.69 1025.66 233.83 1025.74 235.04C1025.82 236.25 1025.44 237.45 1024.67 238.39C1023.91 239.33 1022.81 239.95 1021.61 240.11C1020.38 240.16 1019.17 239.73 1018.25 238.91C1017.32 238.1 1016.75 236.95 1016.64 235.72C1016.54 234.49 1016.91 233.27 1017.68 232.31C1018.46 231.35 1019.57 230.72 1020.79 230.56L1020.97 230.56ZM984.42 270.18C985.02 270.18 985.61 270.29 986.16 270.52C986.71 270.75 987.2 271.08 987.63 271.5C988.05 271.92 988.38 272.42 988.61 272.97C988.83 273.52 988.95 274.11 988.95 274.7C988.98 275.33 988.89 275.96 988.68 276.55C988.47 277.14 988.14 277.68 987.72 278.15C987.3 278.62 986.8 279 986.23 279.27C985.66 279.54 985.05 279.7 984.42 279.73C983.11 279.91 981.78 279.54 980.75 278.71C979.72 277.88 979.08 276.66 978.98 275.34C978.88 274.02 979.33 272.72 980.22 271.74C981.12 270.76 982.37 270.2 983.7 270.18L984.42 270.18ZM934.51 293.99C935.13 293.96 935.76 294.06 936.35 294.27C936.93 294.48 937.48 294.8 937.94 295.22C938.4 295.64 938.78 296.15 939.04 296.72C939.31 297.28 939.46 297.9 939.49 298.52C939.49 298.66 939.45 297.7 939.49 298.97C939.54 300.25 939.08 301.48 938.21 302.42C937.34 303.35 936.14 303.9 934.87 303.95C933.6 304 932.36 303.54 931.42 302.67C930.49 301.81 929.94 300.61 929.89 299.34C929.86 298.71 929.95 298.08 930.16 297.49C930.37 296.9 930.7 296.36 931.12 295.89C931.54 295.42 932.04 295.04 932.61 294.77C933.18 294.5 933.79 294.34 934.42 294.31L934.51 293.99ZM876.35 302.14C877.58 302.1 878.79 302.53 879.71 303.34C880.64 304.16 881.21 305.3 881.32 306.53C881.42 307.76 881.05 308.98 880.28 309.94C879.5 310.91 878.39 311.53 877.17 311.7L876.71 311.69C875.44 311.74 874.2 311.28 873.27 310.42C872.33 309.55 871.78 308.35 871.73 307.08C871.69 305.81 872.15 304.57 873.01 303.63C873.88 302.7 875.08 302.15 876.35 302.1L876.35 302.14ZM820.73 295.76C821.37 295.7 822.02 295.78 822.63 295.98C823.24 296.18 823.81 296.5 824.29 296.92C824.78 297.34 825.18 297.86 825.46 298.44C825.74 299.01 825.9 299.64 825.94 300.29C826.04 302.21 824.98 304.01 823.25 304.85C821.52 305.7 819.45 305.43 817.99 304.16C816.54 302.9 815.98 300.89 816.58 299.05C817.17 297.22 818.81 295.92 820.73 295.76ZM770.41 270.4C771.64 270.36 772.85 270.79 773.77 271.6C774.7 272.42 775.27 273.56 775.37 274.79C775.48 276.02 775.11 277.24 774.33 278.2C773.56 279.17 772.45 279.79 771.22 279.96L770.77 279.95C769.5 280 768.26 279.54 767.32 278.68C766.39 277.81 765.84 276.61 765.79 275.34C765.74 274.07 766.2 272.83 767.07 271.89C767.93 270.96 769.14 270.41 770.41 270.36L770.41 270.4ZM733.22 230.74C734.44 230.75 735.6 231.21 736.49 232.04C737.37 232.87 737.91 234.01 737.99 235.22C738.07 236.43 737.69 237.63 736.92 238.57C736.15 239.51 735.06 240.13 733.86 240.29C732.62 240.34 731.42 239.91 730.49 239.09C729.57 238.28 728.99 237.13 728.89 235.91C728.78 234.68 729.16 233.45 729.93 232.49C730.7 231.53 731.82 230.9 733.04 230.74L733.22 230.74ZM712.57 138.78C713.78 138.79 714.95 139.25 715.83 140.08C716.72 140.91 717.25 142.05 717.33 143.26C717.41 144.47 717.03 145.67 716.27 146.61C715.5 147.55 714.4 148.17 713.2 148.33C711.97 148.38 710.76 147.95 709.84 147.13C708.91 146.32 708.34 145.18 708.23 143.95C708.13 142.72 708.5 141.49 709.28 140.53C710.05 139.57 711.16 138.94 712.39 138.78L712.57 138.78ZM849.08 265.56C849.08 266.79 848.84 268.02 848.37 269.16C847.89 270.3 847.2 271.34 846.32 272.22C845.45 273.09 844.41 273.79 843.27 274.26C842.12 274.73 840.9 274.98 839.66 274.98C835.85 274.98 832.42 272.68 830.96 269.16C829.5 265.64 830.31 261.59 833 258.9C835.7 256.21 839.75 255.4 843.27 256.86C846.79 258.31 849.08 261.75 849.08 265.56ZM914.17 256.14C915.41 256.15 916.63 256.4 917.77 256.87C918.91 257.35 919.95 258.05 920.82 258.93C921.69 259.81 922.38 260.85 922.85 262C923.32 263.14 923.55 264.37 923.55 265.6C923.53 269.43 921.21 272.87 917.66 274.32C914.12 275.77 910.05 274.94 907.35 272.22C904.66 269.5 903.87 265.42 905.35 261.89C906.83 258.37 910.3 256.08 914.13 256.1L914.17 256.14ZM946.06 237.3C947.33 237.29 948.59 237.52 949.77 238C950.95 238.48 952.02 239.19 952.92 240.09C953.82 240.99 954.53 242.06 955.01 243.24C955.49 244.42 955.72 245.68 955.71 246.95C955.67 250.79 953.31 254.22 949.75 255.65C946.18 257.07 942.1 256.19 939.43 253.43C936.76 250.67 936.03 246.57 937.57 243.06C939.11 239.54 942.63 237.3 946.47 237.4L946.06 237.3ZM980.3 218.33C980.31 219.57 980.07 220.8 979.6 221.95C979.13 223.1 978.43 224.14 977.56 225.02C976.68 225.9 975.64 226.6 974.5 227.08C973.35 227.55 972.12 227.8 970.88 227.8C967.07 227.8 963.64 225.51 962.18 221.99C960.72 218.48 961.52 214.43 964.2 211.74C966.89 209.04 970.93 208.22 974.45 209.66C977.98 211.11 980.28 214.53 980.3 218.33ZM807.82 236.94C809.06 236.95 810.28 237.2 811.42 237.68C812.56 238.16 813.6 238.85 814.47 239.73C815.34 240.61 816.03 241.65 816.5 242.8C816.96 243.94 817.2 245.17 817.2 246.41C817.18 250.23 814.86 253.67 811.31 255.12C807.77 256.57 803.7 255.74 801 253.02C798.31 250.3 797.52 246.23 799 242.7C800.48 239.17 803.95 236.88 807.78 236.9L807.82 236.94ZM782.77 208.92C784.01 208.92 785.24 209.16 786.38 209.63C787.52 210.11 788.56 210.8 789.43 211.67C790.31 212.55 791 213.59 791.48 214.73C791.95 215.87 792.19 217.1 792.19 218.33C792.23 222.18 789.94 225.66 786.39 227.15C782.85 228.64 778.75 227.83 776.03 225.11C773.32 222.4 772.51 218.3 774 214.76C775.49 211.22 778.97 208.92 782.82 208.96L782.77 208.92ZM1165.96 114.19L1298.08 114.19L1293.15 127.78L1239.88 127.78L1239.88 205.66L1219.36 205.66L1219.36 127.78L1160.98 127.78L1165.96 114.19ZM738.02 156.98C738.99 156.98 739.95 157.17 740.85 157.54C741.74 157.91 742.56 158.46 743.24 159.14C743.93 159.83 744.47 160.64 744.84 161.54C745.21 162.43 745.41 163.39 745.41 164.36C745.39 167.37 743.56 170.06 740.78 171.19C738 172.33 734.8 171.67 732.69 169.54C730.58 167.4 729.97 164.2 731.13 161.43C732.3 158.67 735.02 156.87 738.02 156.89L738.02 156.98ZM900.31 114.42L949.77 204.75L927.8 204.75L878.34 114.19L900.31 114.42ZM853.02 114.42L874.99 114.42L825.58 204.75L803.61 204.75L853.02 114.42ZM1039.46 183.94C1040.72 183.83 1041.98 184.23 1042.96 185.05C1043.93 185.87 1044.54 187.05 1044.65 188.32C1044.75 189.58 1044.35 190.84 1043.53 191.82C1042.71 192.79 1041.54 193.4 1040.27 193.52L1040.27 193.5C1039 193.61 1037.74 193.21 1036.77 192.39C1035.79 191.57 1035.19 190.4 1035.08 189.13C1034.97 187.86 1035.37 186.6 1036.19 185.63C1037.01 184.65 1038.19 184.05 1039.45 183.92L1039.46 183.94ZM1513.23 152.59C1530.94 152.59 1540 164.72 1540 176.41L1540 182.43C1539.77 193.97 1530.99 205.61 1513.73 205.61L1417.89 205.61L1422.87 192.03L1508.48 192.03C1509.96 192.06 1511.43 191.8 1512.81 191.26C1514.19 190.72 1515.45 189.91 1516.52 188.89C1517.59 187.86 1518.44 186.63 1519.04 185.28C1519.63 183.92 1519.95 182.46 1519.98 180.98L1519.98 178.44C1519.99 178.37 1519.99 178.3 1519.99 178.23C1520 178.16 1520 178.09 1520 178.01C1520 177.94 1520 177.87 1519.99 177.8C1519.99 177.73 1519.99 177.65 1519.98 177.58C1519.84 176.08 1519.41 174.63 1518.71 173.3C1518.01 171.96 1517.06 170.78 1515.9 169.82C1514.74 168.86 1513.41 168.13 1511.97 167.68C1510.53 167.24 1509.02 167.08 1507.52 167.21L1444.66 167.21C1426.95 167.21 1417.89 155.08 1417.89 143.35L1417.89 137.38C1418.11 125.83 1426.9 114.19 1444.16 114.19L1540 114.19L1535.02 127.78L1449.41 127.78C1447.93 127.74 1446.45 128 1445.07 128.54C1443.69 129.07 1442.43 129.88 1441.36 130.91C1440.29 131.93 1439.43 133.16 1438.84 134.52C1438.25 135.88 1437.93 137.34 1437.91 138.83L1437.91 141.36C1437.9 141.44 1437.9 141.53 1437.89 141.61C1437.89 141.69 1437.89 141.78 1437.89 141.86C1437.89 141.94 1437.89 142.03 1437.89 142.11C1437.9 142.19 1437.9 142.27 1437.91 142.36C1438.04 143.86 1438.47 145.31 1439.17 146.64C1439.87 147.98 1440.83 149.16 1441.99 150.12C1443.14 151.08 1444.48 151.81 1445.92 152.26C1447.35 152.7 1448.86 152.86 1450.36 152.73L1513.23 152.73L1513.23 152.59ZM95.34 152.59C113.05 152.59 122.11 164.72 122.11 176.41L122.11 182.65C121.89 194.2 113.1 205.84 95.84 205.84L0 205.84L4.98 192.25L90.59 192.25C92.07 192.28 93.54 192.02 94.92 191.48C96.3 190.94 97.56 190.14 98.63 189.11C99.7 188.09 100.55 186.86 101.15 185.5C101.74 184.15 102.06 182.69 102.09 181.21L102.09 178.67C102.1 178.6 102.1 178.53 102.11 178.46C102.11 178.38 102.11 178.31 102.11 178.24C102.11 178.17 102.11 178.1 102.11 178.02C102.1 177.95 102.1 177.88 102.09 177.81C101.96 176.31 101.53 174.85 100.83 173.52C100.13 172.19 99.17 171.01 98.01 170.05C96.86 169.08 95.52 168.36 94.08 167.91C92.65 167.46 91.14 167.3 89.64 167.44L26.77 167.44C9.06 167.44 0 155.31 0 143.58L0 137.6C0.23 126.06 9.06 114.6 26.27 114.19L122.29 114.19L117.13 127.78L31.43 127.78C29.96 127.75 28.49 128.02 27.12 128.56C25.75 129.11 24.5 129.91 23.44 130.94C22.38 131.96 21.53 133.19 20.94 134.54C20.36 135.9 20.04 137.35 20.02 138.83L20.02 141.36C20.01 141.43 20.01 141.5 20.01 141.58C20 141.65 20 141.72 20 141.79C20 141.86 20 141.93 20.01 142.01C20.01 142.08 20.01 142.15 20.02 142.22C20.16 143.72 20.59 145.18 21.29 146.51C21.99 147.84 22.94 149.02 24.1 149.99C25.26 150.95 26.59 151.67 28.03 152.12C29.47 152.57 30.98 152.73 32.48 152.59L95.34 152.59ZM1341.43 114.42L1361.95 114.42L1361.95 204.75L1341.43 204.75L1341.43 114.42ZM171.76 114.19L303.92 114.19L298.94 127.78L245.68 127.78L245.68 205.66L225.16 205.66L225.16 127.78L166.82 127.78L171.76 114.19ZM369.24 127.78L369.24 153.09L432.65 153.09L427.71 166.4L369.42 166.4L369.42 192.07L452.76 192.07L447.78 205.66L348.76 205.66L348.76 114.19L452.62 114.19L447.64 127.78L369.24 127.78ZM534.83 192.16L612.92 192.16L607.89 205.75L514.31 205.75L514.31 114.42L534.83 114.42L534.83 192.16Z" />
</svg>