<?xml version="1.0" encoding="UTF-8" standalone="no"?>
<!-- Created with Inkscape (http://www.inkscape.org/) -->

<svg
   xmlns:dc="http://purl.org/dc/elements/1.1/"
   xmlns:cc="http://creativecommons.org/ns#"
   xmlns:rdf="http://www.w3.org/1999/02/22-rdf-syntax-ns#"
   xmlns:svg="http://www.w3.org/2000/svg"
   xmlns="http://www.w3.org/2000/svg"
   xmlns:sodipodi="http://sodipodi.sourceforge.net/DTD/sodipodi-0.dtd"
   xmlns:inkscape="http://www.inkscape.org/namespaces/inkscape"
   width="25mm"
   height="13.759181mm"
   viewBox="0 0 25 13.759181"
   version="1.1"
   id="svg1483"
   sodipodi:docname="logo_da_usare.svg"
   inkscape:version="0.92.4 (5da689c313, 2019-01-14)">
  <defs
     id="defs1477" />
  <sodipodi:namedview
     id="base"
     pagecolor="#ffffff"
     bordercolor="#666666"
     borderopacity="1.0"
     inkscape:pageopacity="0.0"
     inkscape:pageshadow="2"
     inkscape:zoom="7.9195959"
     inkscape:cx="76.864634"
     inkscape:cy="20.81181"
     inkscape:document-units="mm"
     inkscape:current-layer="layer1"
     showgrid="false"
     inkscape:window-width="1920"
     inkscape:window-height="1001"
     inkscape:window-x="-9"
     inkscape:window-y="-9"
     inkscape:window-maximized="1"
     fit-margin-top="0"
     fit-margin-left="0"
     fit-margin-right="0"
     fit-margin-bottom="0" />
  <metadata
     id="metadata1480">
    <rdf:RDF>
      <cc:Work
         rdf:about="">
        <dc:format>image/svg+xml</dc:format>
        <dc:type
           rdf:resource="http://purl.org/dc/dcmitype/StillImage" />
        <dc:title></dc:title>
      </cc:Work>
    </rdf:RDF>
  </metadata>
  <g
     inkscape:label="Livello 1"
     inkscape:groupmode="layer"
     id="layer1"
     transform="translate(525.03572,105.99864)">
    <g
       transform="matrix(0.06558237,0,0,0.06558237,-528.53782,-118.97739)"
       id="g22"
       inkscape:export-xdpi="300.90454"
       inkscape:export-ydpi="300.90454">
      <path
         class="st0"
         d="M 429.9,407.7 H 58.2 c -2.6,0 -4.8,-2.1 -4.8,-4.8 v -31.8 c 0,-2.6 2.1,-4.8 4.8,-4.8 h 371.6 c 2.6,0 4.8,2.1 4.8,4.8 v 31.8 c 0,2.6 -2.1,4.8 -4.7,4.8 z"
         id="path4"
         inkscape:connector-curvature="0"
         style="fill:#2a3e92;fill-opacity:1" />
      <g
         id="g18">
        <path
           class="st1"
           d="m 87.2,374.6 -2.2,4.6 c -3.3,-2 -6.7,-2.9 -9,-2.9 -3,0 -5,1.1 -5,3.2 0,6.7 16.6,3.1 16.6,14.2 0,5.5 -4.8,8.9 -11.6,8.9 -4.8,0 -9.4,-2 -12.6,-4.9 l 2.2,-4.5 c 3.2,2.9 7.1,4.5 10.4,4.5 3.6,0 5.8,-1.4 5.8,-3.7 0,-6.9 -16.6,-3 -16.6,-14 0,-5.3 4.5,-8.6 11.2,-8.6 4,0 7.9,1.3 10.8,3.2 z"
           id="path6"
           inkscape:connector-curvature="0"
           style="fill:#ffffff" />
        <path
           class="st1"
           d="m 143.9,402.5 h -5.1 v -10.1 l -11.5,-20.7 h 5.2 l 8.8,15 8.6,-15 h 5.3 l -11.3,20.6 z"
           id="path8"
           inkscape:connector-curvature="0"
           style="fill:#ffffff" />
        <path
           class="st1"
           d="m 217.8,374.6 -2.2,4.6 c -3.3,-2 -6.7,-2.9 -9,-2.9 -3,0 -5,1.1 -5,3.2 0,6.7 16.6,3.1 16.6,14.2 0,5.5 -4.8,8.9 -11.6,8.9 -4.8,0 -9.4,-2 -12.6,-4.9 l 2.2,-4.5 c 3.2,2.9 7.1,4.5 10.4,4.5 3.6,0 5.8,-1.4 5.8,-3.7 0,-6.9 -16.6,-3 -16.6,-14 0,-5.3 4.5,-8.6 11.2,-8.6 4.1,0 8,1.3 10.8,3.2 z"
           id="path10"
           inkscape:connector-curvature="0"
           style="fill:#ffffff" />
        <path
           class="st1"
           d="m 273.2,376.3 v 26.1 H 268 v -26.1 h -9.7 v -4.7 H 283 v 4.7 z"
           id="path12"
           inkscape:connector-curvature="0"
           style="fill:#ffffff" />
        <path
           class="st1"
           d="m 330.2,376.3 v 8.3 h 15.1 v 4.7 h -15.1 v 8.5 h 17.3 v 4.7 H 325 v -30.8 h 22 v 4.7 h -16.8 z"
           id="path14"
           inkscape:connector-curvature="0"
           style="fill:#ffffff" />
        <path
           class="st1"
           d="m 419.3,402.5 v -23 l -9.7,19.8 h -3.4 l -9.7,-19.8 v 23 h -4.9 v -30.8 h 6.2 l 10.2,20.5 10.1,-20.5 h 6.1 v 30.8 z"
           id="path16"
           inkscape:connector-curvature="0"
           style="fill:#ffffff" />
      </g>
      <path
         class="st0"
         d="m 431.5,197.9 h -29.3 c -1.7,0 -3.1,1.3 -3.1,2.9 v 103.1 c 0,2.8 -3.7,4 -5.5,1.8 L 305.3,200.8 c -1.6,-1.9 -3.9,-2.9 -6.3,-2.9 h -25.8 v 86.5 c 9.9,1.3 17.6,9.7 17.6,20 0,0.8 -0.1,1.7 -0.1,2.5 h -5.2 c 0.1,-0.8 0.2,-1.6 0.2,-2.5 0,-8.3 -6.7,-15 -15,-15 -8.3,0 -15,6.7 -15,15 0,0.8 0.1,1.7 0.2,2.5 h -5.2 c -0.1,-0.8 -0.1,-1.6 -0.1,-2.5 0,-10.3 7.7,-18.7 17.6,-20 v -86.5 h -21.1 c -2.4,0 -4.7,1.1 -6.3,2.9 l -97.9,115.9 c -0.6,0.7 -1.5,1.1 -2.4,1.1 H 88.9 c 0,0 0,0 0,0 V 202 c 0,-2.2 -1.8,-4 -4,-4 H 56.5 c -1.7,0 -3.1,1.3 -3.1,2.9 v 148.8 c 0,4.9 4,8.8 8.8,8.8 h 37.6 51.4 c 0.9,0 1.8,-0.4 2.4,-1.1 l 21.6,-25.6 c 0.6,-0.7 1.4,-1.1 2.3,-1.1 h 67.8 c 1.6,0 3,1.3 3,3 v 18.9 c 0,3.3 2.8,6 6.3,6 H 268 V 312 c -3.1,-1.1 -5.4,-4 -5.4,-7.5 0,-4.4 3.6,-8 8,-8 4.4,0 8,3.6 8,8 0,3.5 -2.2,6.4 -5.4,7.5 v 46.6 h 15.6 c 2,0 3.9,-1.3 3.9,-3.3 V 248.8 c 0,-3.3 4.4,-4.7 6.5,-2.2 0,0 91.9,109.7 92,109.9 1.6,1.3 3.6,1.9 5.7,1.9 h 28.8 c 4.9,0 8.8,-4 8.8,-8.8 V 200.8 c 0.1,-1.6 -1.3,-2.9 -3,-2.9 z M 248.2,306.7 h -48.9 c -2.5,0 -3.9,-2.9 -2.3,-4.9 l 45.7,-57.1 c 1.8,-2.2 5.5,-0.9 5.5,1.8 z"
         id="path20"
         inkscape:connector-curvature="0"
         style="fill:#2a3e92;fill-opacity:1" />
    </g>
  </g>
</svg>
